<svg xmlns="http://www.w3.org/2000/svg" xmlns:xlink="http://www.w3.org/1999/xlink" width="83" height="86" viewBox="0 0 83 86"><defs><path id="72b2a" d="M101.486 533.921h11.044v11.044h-11.044zm2.65 8.385h5.744v-5.761h-5.744zm12.344-8.385h11.045v11.044H116.48zm2.65 8.385h5.744v-5.761h-5.743zm12.345-8.385h11.044v11.044h-11.044zm2.65 8.385h5.744v-5.761h-5.744zm12.335-8.385h11.045v11.044H146.46zm2.651 8.385h5.743v-5.761h-5.743zm21.895 6.15v27.53H87.993v-27.53l6.3-5.113v-16.335h6.892v-9.324h14.465c.624-6.667 5.876-11.953 12.52-12.603v-15.067h13.448v8.677h-10.797v6.39c6.648.646 11.904 5.933 12.529 12.603h14.447v9.324h6.91v16.335zm-32.039-55.784h-8.146v3.36h8.146zm-20.649 25.012h22.364c-.687-5.664-5.472-9.928-11.16-9.944-5.705-.006-10.516 4.263-11.204 9.944zm-14.482 9.35h51.31v-6.664h-51.248zm-9.543 19.703l-3.649 2.987v23.603h3.65zm15.587 26.59v-20.5h-5.744v20.5zm15.02 0v-20.5h-5.743v20.5zm15.022 0v-20.5h-5.744v20.5zm15.02 0v-20.5H149.2v20.5zm7.113 0v-43.66H96.944v43.66h4.542v-23.16h11.044v23.16h3.95v-23.16h11.045v23.16h3.95v-23.16h11.044v23.16h3.941v-23.16h11.045v23.16zm6.3-23.63l-3.649-2.96v26.59h3.738z"/></defs><g><g transform="translate(-88 -490)"><use fill="#22222a" xlink:href="#72b2a"/></g></g></svg>