<svg xmlns="http://www.w3.org/2000/svg" xmlns:xlink="http://www.w3.org/1999/xlink" width="24" height="25" viewBox="0 0 24 25"><defs><path id="zbi3a" d="M41.853 337.977h3.156v3.156h-3.156zm.757 2.396h1.641v-1.646h-1.64zm3.527-2.396h3.156v3.156h-3.156zm.758 2.396h1.64v-1.646h-1.64zm3.526-2.396h3.156v3.156h-3.156zm.758 2.396h1.64v-1.646h-1.64zm3.524-2.396h3.156v3.156h-3.156zm.757 2.396h1.641v-1.646h-1.64zm6.256 1.757v7.866H37.998v-7.866l1.8-1.46v-4.668h1.97v-2.664H45.9a3.987 3.987 0 0 1 3.577-3.6v-4.306h3.842v2.48h-3.085v1.825a3.987 3.987 0 0 1 3.58 3.601h4.128v2.664h1.974v4.667zm-9.154-15.938h-2.328v.96h2.328zm-5.9 7.146h6.39a3.225 3.225 0 0 0-3.189-2.841 3.225 3.225 0 0 0-3.2 2.841zm-4.137 2.672h14.66v-1.905H42.542zm-2.727 5.63l-1.043.853v6.743h1.043zm4.453 7.596v-5.857h-1.64v5.857zm4.292 0v-5.857h-1.64v5.857zm4.292 0v-5.857h-1.641v5.857zm4.291 0v-5.857h-1.64v5.857zm2.033 0v-12.474H40.555v12.474h1.298v-6.617h3.156v6.617h1.128v-6.617h3.156v6.617h1.128v-6.617h3.156v6.617h1.126v-6.617h3.156v6.617zm1.8-6.75l-1.043-.847v7.597h1.068z"/></defs><g><g transform="translate(-38 -325)"><use fill="#22222a" xlink:href="#zbi3a"/></g></g></svg>