<svg xmlns="http://www.w3.org/2000/svg" xmlns:xlink="http://www.w3.org/1999/xlink" width="19" height="23" viewBox="0 0 23 29"><defs><path id="2u2ba" d="M412.57 920.925c.497-.558.773-1.17.773-1.815v3.63c0 2.556-4.33 4.629-9.671 4.629-5.341 0-9.672-2.073-9.672-4.63v-2.945a8.444 8.444 0 0 1-1.249-.696 5.081 5.081 0 0 1-1.088-.977 3.083 3.083 0 0 1-.497-.837 2.341 2.341 0 0 1-.166-.838v-3.63c0 .645.276 1.258.773 1.816.264.297.596.576.978.837.54.369 1.19.698 1.927.977 1.016.385 2.198.672 3.486.838.8.103 1.639.163 2.508.163a19.7 19.7 0 0 0 2.508-.163c1.287-.166 2.469-.453 3.485-.838a9.222 9.222 0 0 0 1.927-.977c.382-.261.714-.54.978-.837a3.13 3.13 0 0 0 .65-1.078c-.067.03-.136.06-.206.089-1.698.708-3.913 1.14-6.342 1.14-2.43 0-4.644-.432-6.342-1.14a8.814 8.814 0 0 1-1.578-.838 5.086 5.086 0 0 1-1.089-.977 3.087 3.087 0 0 1-.497-.837 2.338 2.338 0 0 1-.166-.838v-3.63c0 .645.276 1.258.773 1.816.265.296.596.576.979.837.54.37 1.19.698 1.927.977 1.016.385 2.197.672 3.485.838.801.102 1.64.162 2.508.162.869 0 1.707-.06 2.508-.162 1.288-.166 2.47-.453 3.485-.838a9.21 9.21 0 0 0 1.927-.977c.383-.261.714-.54.979-.837.496-.558.772-1.171.772-1.815v3.63c0 .286-.061.565-.166.837-.11.29-.279.569-.496.837a5.088 5.088 0 0 1-1.089.977 8.385 8.385 0 0 1-1.249.694v2.947c0 .286-.062.566-.166.838-.11.29-.279.57-.497.837a5.082 5.082 0 0 1-1.088.977c-1.75 1.195-4.642 1.978-7.92 1.978-2.528 0-4.827-.465-6.548-1.226.126.375.347.735.65 1.075.638.716 1.646 1.337 2.905 1.814 1.648.625 3.727 1 5.993 1 2.266 0 4.345-.375 5.993-1 1.26-.477 2.267-1.098 2.906-1.814zm-18.404-16.228a2.337 2.337 0 0 1-.166-.837c0-2.557 4.33-4.63 9.672-4.63 5.341 0 9.671 2.073 9.671 4.63 0 .286-.061.566-.166.837-.11.29-.279.57-.496.838a5.088 5.088 0 0 1-1.089.977c-.453.31-.984.59-1.578.838-1.698.708-3.913 1.14-6.342 1.14-2.43 0-4.644-.432-6.342-1.14a8.829 8.829 0 0 1-1.578-.838 5.087 5.087 0 0 1-1.089-.977 3.082 3.082 0 0 1-.497-.838z"/></defs><g><g transform="translate(-391 -899)"><use fill="#4c7ec0" xlink:href="#2u2ba"/></g></g></svg>