<svg xmlns="http://www.w3.org/2000/svg" xmlns:xlink="http://www.w3.org/1999/xlink" width="19" height="23" viewBox="0 0 19 23"><defs><path id="9e0ca" d="M57.758 457.634c.394-.443.613-.93.613-1.443v2.885c0 2.032-3.436 3.68-7.674 3.68s-7.674-1.648-7.674-3.68v-2.34a6.698 6.698 0 0 1-.991-.554c-.35-.24-.64-.5-.864-.777a2.45 2.45 0 0 1-.394-.665 1.862 1.862 0 0 1-.132-.666v-2.884c0 .512.22.999.613 1.442.21.236.473.458.777.665a7.32 7.32 0 0 0 1.529.777c.806.306 1.743.534 2.765.666.636.081 1.3.13 1.99.13s1.354-.049 1.99-.13a12.29 12.29 0 0 0 2.766-.666 7.318 7.318 0 0 0 1.528-.777c.304-.207.567-.43.777-.665.24-.27.416-.558.516-.857a8.732 8.732 0 0 1-.164.07c-1.348.564-3.105.907-5.032.907-1.928 0-3.685-.343-5.032-.906a6.983 6.983 0 0 1-1.253-.666c-.35-.24-.639-.5-.863-.776a2.452 2.452 0 0 1-.394-.666 1.862 1.862 0 0 1-.132-.666v-2.884c0 .512.219.999.613 1.442.21.236.473.458.776.666a7.31 7.31 0 0 0 1.53.776c.806.306 1.743.535 2.765.666.636.082 1.3.13 1.99.13s1.354-.048 1.99-.13c1.022-.131 1.959-.36 2.765-.666a7.307 7.307 0 0 0 1.53-.776c.303-.208.566-.43.776-.666.394-.443.613-.93.613-1.442v2.884c0 .228-.05.45-.132.666-.088.23-.221.453-.394.666a4.045 4.045 0 0 1-.864.776c-.292.2-.624.384-.991.552v2.342c0 .228-.05.45-.132.666-.088.23-.221.452-.394.665a4.032 4.032 0 0 1-.863.777c-1.388.95-3.683 1.572-6.285 1.572-2.006 0-3.83-.37-5.195-.975.1.299.275.585.515.855.507.569 1.307 1.063 2.305 1.442 1.308.496 2.958.795 4.756.795s3.447-.299 4.755-.795c1-.38 1.8-.873 2.306-1.442zm-14.603-12.898a1.862 1.862 0 0 1-.132-.665c0-2.033 3.436-3.68 7.674-3.68s7.674 1.647 7.674 3.68c0 .227-.05.45-.132.665-.088.23-.221.453-.394.666a4.032 4.032 0 0 1-.864.776c-.36.246-.78.47-1.252.666-1.348.563-3.105.906-5.032.906-1.928 0-3.685-.343-5.033-.906a7.003 7.003 0 0 1-1.252-.666c-.35-.24-.639-.5-.863-.776a2.452 2.452 0 0 1-.394-.666z"/></defs><g><g transform="translate(-40 -440)"><use fill="#22222a" xlink:href="#9e0ca"/></g></g></svg>