<svg xmlns="http://www.w3.org/2000/svg" xmlns:xlink="http://www.w3.org/1999/xlink" width="21" height="21" viewBox="0 0 21 21"><defs><path id="iogja" d="M60.12 600.78H40.445a.436.436 0 0 1-.436-.437v-1.397a1.353 1.353 0 0 1 .871-1.245v-.59c0-.964.78-1.746 1.741-1.746h.13v-7.424h-1.153a.436.436 0 0 1-.435-.437v-1.288c0-1.261.768-2.395 1.937-2.86l6.051-2.402a3.125 3.125 0 0 1 2.264 0l6.051 2.402a3.079 3.079 0 0 1 1.937 2.86v1.288a.436.436 0 0 1-.435.437h-1.154v7.424h.13c.963 0 1.742.782 1.742 1.747v.59c.517.196.862.69.87 1.244v1.397a.436.436 0 0 1-.434.437zm-3.177-12.839h-2.025v7.424h2.025zm-10.644 0v7.424H48.3v-7.424zm2.873 7.424h2.003v-7.424h-2.003zm2.873 0h2.003v-7.424h-2.003zm-10.012-8.297h16.499v-.852a2.161 2.161 0 0 0-1.372-2.03l-6.073-2.424a2.277 2.277 0 0 0-1.61 0l-6.073 2.424a2.161 2.161 0 0 0-1.371 2.03zm1.589 8.297h1.806v-7.424h-1.806zm-1.872 1.747v.524h17.065v-.524a.872.872 0 0 0-.871-.874H42.62c-.48 0-.87.391-.87.874zm17.935 1.834a.436.436 0 0 0-.435-.437H41.314a.436.436 0 0 0-.435.437v.96h18.806zm-7.77-14.608c0 .905-.731 1.638-1.633 1.638a1.635 1.635 0 0 1-1.632-1.638c0-.904.73-1.637 1.632-1.637.902 0 1.633.733 1.633 1.637zm-.871 0a.763.763 0 1 0-1.526-.002.763.763 0 0 0 1.526.002z"/></defs><g><g transform="translate(-40 -580)"><use fill="#fff" xlink:href="#iogja"/></g></g></svg>