<svg xmlns="http://www.w3.org/2000/svg" xmlns:xlink="http://www.w3.org/1999/xlink" width="52" height="51" viewBox="0 0 73 74"><defs><path id="zl5ha" d="M1095.13 894.72h-71.286V884.2h3.8v-5.998h3.533v-18.396h-3.534v-8.878h7.65c.736-12.041 10.636-21.634 22.764-21.813v-7.836h2.868v7.837c12.116.193 22 9.78 22.736 21.812h7.67v8.878h-3.526v18.396h3.527v5.998h3.799zm-18.077-34.913v18.396h7.885v-18.396zm-10.752 0v18.396h7.885v-18.396zm-10.752 0v18.396h7.885v-18.396zm-10.753 0v18.396h7.885v-18.396zm-10.752 0v18.396h7.885v-18.396zm-7.333 32.033h65.552v-4.759h-65.552zm61.754-10.757h-57.955v3.118h57.955zm-57.955-24.156h57.955v-3.118h-57.955zm30.042-24.933h-2.15c-10.704 0-19.498 8.37-20.236 18.935h42.62c-.737-10.565-9.53-18.935-20.234-18.935z"/></defs><g><g transform="translate(-1023 -821)"><use fill="#000" xlink:href="#zl5ha"/></g></g></svg>