<svg xmlns="http://www.w3.org/2000/svg" xmlns:xlink="http://www.w3.org/1999/xlink" width="52" height="51" viewBox="0 0 72 71"><defs><path id="8d3la" d="M821.422 1147.23h-68.87a1.526 1.526 0 0 1-1.523-1.528v-4.891a4.737 4.737 0 0 1 3.047-4.356v-2.063c0-3.377 2.729-6.114 6.095-6.114h.457v-25.984h-4.038a1.526 1.526 0 0 1-1.523-1.528v-4.51a10.775 10.775 0 0 1 6.78-10.01l21.179-8.407a10.94 10.94 0 0 1 7.923 0l21.178 8.406a10.775 10.775 0 0 1 6.78 10.012v4.509c0 .844-.681 1.528-1.523 1.528h-4.038v25.984h.458c3.365 0 6.094 2.737 6.094 6.113v2.064a4.737 4.737 0 0 1 3.047 4.356v4.89c0 .845-.682 1.53-1.523 1.53zm-11.123-44.936h-7.085v25.984h7.085zm-37.253 0v25.984h7.009v-25.984zm10.056 25.984h7.009v-25.984h-7.01zm10.056 0h7.009v-25.984h-7.009zm-35.044-29.04h57.746v-2.981a7.565 7.565 0 0 0-4.8-7.107l-21.254-8.483a7.974 7.974 0 0 0-5.638 0l-21.255 8.483a7.565 7.565 0 0 0-4.799 7.107zm5.561 29.04H770v-25.984h-6.324zm-6.551 6.113v1.835h59.727v-1.835a3.052 3.052 0 0 0-3.047-3.056H760.17a3.052 3.052 0 0 0-3.047 3.056zm62.774 6.42c0-.844-.682-1.529-1.524-1.529H755.6c-.842 0-1.524.685-1.524 1.529v3.363h65.822zm-27.197-51.127c0 3.166-2.558 5.732-5.714 5.732-3.155 0-5.713-2.566-5.713-5.732 0-3.165 2.558-5.731 5.713-5.731 3.156 0 5.714 2.566 5.714 5.731zm-3.047 0a2.67 2.67 0 0 0-2.667-2.675 2.67 2.67 0 0 0-2.666 2.675 2.67 2.67 0 0 0 2.666 2.675 2.67 2.67 0 0 0 2.667-2.675z"/></defs><g><g transform="translate(-751 -1077)"><use fill="#22222a" xlink:href="#8d3la"/></g></g></svg>