<svg xmlns="http://www.w3.org/2000/svg" xmlns:xlink="http://www.w3.org/1999/xlink" width="22" height="18" viewBox="0 0 22 18"><defs><path id="g4ixa" d="M111.38 284.858h-.255c-1.656 0-2.999-1.392-2.999-3.11s1.343-3.11 2.999-3.11h.254zm5.237 5.435c.22.645-.09 1.355-.704 1.605-.638.261-1.357-.073-1.596-.739l-1.064-2.974a4.98 4.98 0 0 1-.289-1.725v-1.612h-.002v.01-6.22.01l11.632-3.351v12.902l-9.172-2.643v.64c-.007.368.048.738.168 1.092zm12.523-16.306v15.522l-2.963-.854v-13.814z"/></defs><g><g transform="translate(-108 -274)"><use fill="#619eef" xlink:href="#g4ixa"/></g></g></svg>