<svg xmlns="http://www.w3.org/2000/svg" xmlns:xlink="http://www.w3.org/1999/xlink" width="22" height="18" viewBox="0 0 22 18"><defs><path id="55hea" d="M698.38 53.858h-.255c-1.656 0-2.999-1.392-2.999-3.11s1.343-3.11 2.999-3.11h.254zm5.237 5.435c.22.645-.09 1.354-.704 1.605-.638.261-1.357-.073-1.596-.739l-1.064-2.974a4.981 4.981 0 0 1-.289-1.725v-1.612h-.002v.01-6.22.01l11.632-3.351v12.902l-9.172-2.643v.64c-.007.368.048.738.168 1.092zm12.523-16.306V58.51l-2.963-.854V43.841z"/></defs><g><g transform="translate(-695 -43)"><use fill="#4c7ec0" xlink:href="#55hea"/></g></g></svg>