<svg xmlns="http://www.w3.org/2000/svg" xmlns:xlink="http://www.w3.org/1999/xlink" width="101" height="22" viewBox="0 0 101 22"><defs><path id="3e4fa" d="M102.017 493.132V489h2.582v-4.193c0-1.962 2.274-3.807 3.815-3.807h4.466v4.157h-2.392c-.688 0-.915.552-.915.966v2.993h4.137l-.813 4.082h-3.36v9.79h-4.921v-9.837zm56.615-5.693c.009.193.013.387.013.581 0 5.944-4.515 12.796-12.772 12.796a12.69 12.69 0 0 1-6.88-2.02c.35.041.708.062 1.07.062a8.995 8.995 0 0 0 5.575-1.925 4.495 4.495 0 0 1-4.193-3.123 4.436 4.436 0 0 0 2.027-.077 4.498 4.498 0 0 1-3.6-4.41v-.056c.605.337 1.297.54 2.033.563a4.498 4.498 0 0 1-1.997-3.744c0-.823.221-1.596.608-2.26a12.738 12.738 0 0 0 9.252 4.698 4.513 4.513 0 0 1-.116-1.025 4.493 4.493 0 0 1 4.489-4.497c1.291 0 2.458.547 3.276 1.42a8.989 8.989 0 0 0 2.85-1.09 4.51 4.51 0 0 1-1.973 2.487 8.968 8.968 0 0 0 2.578-.708 9.12 9.12 0 0 1-2.24 2.328zm42.997-4.034c.762-.297 1.548.368 1.376 1.164l-3.416 16.261a1.079 1.079 0 0 1-1.69.644l-5.157-3.768-2.63 2.672a.873.873 0 0 1-1.455-.348l-1.897-5.995-5.085-1.495c-.67-.196-.707-1.122-.06-1.373zm-2.507 3.61c.223-.198-.037-.546-.286-.39l-10.978 6.778a.493.493 0 0 0-.215.569l1.473 4.722c.033.1.176.089.189-.016l.357-3.166a.482.482 0 0 1 .165-.318z"/></defs><g><g transform="translate(-102 -481)"><use fill="#fff" xlink:href="#3e4fa"/></g></g></svg>