<svg xmlns="http://www.w3.org/2000/svg" xmlns:xlink="http://www.w3.org/1999/xlink" width="18" height="15" viewBox="0 0 18 15"><defs><path id="olz5a" d="M735.959 43.97c.63-.243 1.282.303 1.139.955l-2.829 13.328c-.132.624-.878.905-1.4.528l-4.27-3.089-2.178 2.19a.726.726 0 0 1-1.205-.285l-1.57-4.914-4.212-1.225a.592.592 0 0 1-.049-1.125zm-2.076 2.959c.184-.161-.032-.446-.237-.32l-9.092 5.556a.402.402 0 0 0-.177.467l1.219 3.87c.028.083.146.072.157-.013l.296-2.595a.394.394 0 0 1 .136-.26z"/></defs><g><g transform="translate(-719 -44)"><use fill="#4b7dbf" xlink:href="#olz5a"/></g></g></svg>