<svg xmlns="http://www.w3.org/2000/svg" xmlns:xlink="http://www.w3.org/1999/xlink" width="19" height="16" viewBox="0 0 19 16"><defs><path id="6x7ra" d="M700.55 45.37a7.491 7.491 0 0 1-2.135.58 3.703 3.703 0 0 0 1.635-2.04 7.485 7.485 0 0 1-2.36.895 3.726 3.726 0 0 0-2.714-1.164c-2.053 0-3.717 1.65-3.717 3.686 0 .289.032.57.096.84a10.585 10.585 0 0 1-7.662-3.851 3.646 3.646 0 0 0-.504 1.853c0 1.278.657 2.407 1.654 3.068a3.723 3.723 0 0 1-1.684-.462v.047c0 1.786 1.281 3.276 2.982 3.614a3.768 3.768 0 0 1-1.679.063 3.718 3.718 0 0 0 3.473 2.56 7.499 7.499 0 0 1-4.617 1.577c-.3 0-.596-.017-.887-.05a10.588 10.588 0 0 0 5.698 1.655c6.838 0 10.577-5.616 10.577-10.487 0-.16-.003-.319-.01-.477a7.509 7.509 0 0 0 1.854-1.908z"/></defs><g><g transform="translate(-682 -43)"><use fill="#4b7dbf" xlink:href="#6x7ra"/></g></g></svg>